PathFileType	4	(X/Y/Z)	C:\Users\WrightLab\Desktop\Jo\P5V47.trc
DataRate	CameraRate	NumFrames	NumMarkers	Units	OrigDataRate	OrigDataStartFrame	OrigNumFrames
100.00	100.00	       29	19	mm	100.00	224	       892
Frame#	Time	Headset_Front			Headset_Back			Headset_Left			Headset_Right			Left_Shoulder			Right_Shoulder			Sternum			C7			Left Elbow			Right Elbow			Left Wrist			Right Wrist			Left ASIS			Right ASIS			S2			Left Knee			Right Knee			Left Ankle			Right Ankle			
		X1	Y1	Z1	X2	Y2	Z2	X3	Y3	Z3	X4	Y4	Z4	X5	Y5	Z5	X6	Y6	Z6	X7	Y7	Z7	X8	Y8	Z8	X9	Y9	Z9	X10	Y10	Z10	X11	Y11	Z11	X12	Y12	Z12	X13	Y13	Z13	X14	Y14	Z14	X15	Y15	Z15	X16	Y16	Z16	X17	Y17	Z17	X18	Y18	Z18	X19	Y19	Z19	

224	2.230	-319.18542	1501.46863	-862.00897	-28.50914	929.67487	-1041.65442																						-415.35388	1147.75488	-881.23779	-10.86932	1049.53821	-1016.68829	-314.01453	1009.29138	-694.32385	-356.73779	471.38400	-1017.98822	-301.91080	927.16107	-974.64624				11.21262	485.57614	-1121.29016										
225	2.240	-319.23981	1501.44348	-862.02740	-30.40925	929.20782	-1040.29175																						-415.32578	1146.78918	-881.67389	-11.48187	1049.14551	-1015.78784	-315.15714	1008.43176	-696.49506	-356.99918	471.73514	-1018.03479	-301.88397	927.28601	-975.19403				11.36736	485.32486	-1121.22034										
226	2.250	-319.33295	1501.40344	-862.05841	-29.30716	929.52905	-1039.63306																						-416.35056	1146.61987	-883.55841	-11.85405	1050.02295	-1015.00909	-316.11832	1007.99048	-697.17139	-357.35532	471.39005	-1018.72400	-302.15027	926.77142	-975.94647				11.10106	485.05542	-1120.78723										
227	2.260	-319.41205	1501.31934	-862.31744	-29.38737	929.71411	-1039.55090																						-417.61740	1146.76990	-884.07062	-12.05333	1050.43823	-1014.48157	-317.62177	1005.87604	-698.91455	-357.51617	471.27722	-1019.04108	-303.32870	926.77905	-976.51422				11.25628	485.18674	-1120.53125										
228	2.270	-319.52161	1501.17065	-862.46558	-28.90643	929.64514	-1039.39404																						-417.18759	1145.62317	-886.35352	-11.64008	1050.25537	-1012.94965	-319.10049	1005.88733	-700.24231	-357.54218	471.31830	-1019.05878	-303.78867	926.84717	-977.20618				11.52479	485.15860	-1120.22266										
229	2.280	-319.61957	1501.11890	-862.74408	-30.00957	928.61212	-1039.03381																						-418.25925	1145.79150	-887.79376	-11.64600	1049.75110	-1011.53253	-320.24988	1005.00769	-702.23657	-357.51993	471.15942	-1020.87634	-303.86823	926.73163	-977.12811				11.53711	484.93744	-1119.50696										
230	2.290	-319.69763	1500.99524	-862.92474	-29.61498	928.76636	-1038.77393																						-419.36368	1144.72485	-890.06189	-11.67609	1049.90442	-1011.01526	-321.15128	1004.50110	-703.91632	-357.61731	471.44131	-1020.94727	-304.30682	926.81610	-977.41321				11.18624	485.01614	-1118.84924										
231	2.300	-319.74142	1500.96362	-862.94183	-29.87104	928.78180	-1038.16382																						-419.94443	1144.47034	-890.92767	-11.69213	1049.87158	-1011.00140	-322.46033	1004.98309	-704.79932	-357.74319	472.25693	-1020.86127	-305.34604	926.85059	-978.14587				11.38367	485.08069	-1118.61194										
232	2.310	-319.80298	1500.95801	-862.95819	-30.32603	928.58881	-1037.50415																						-420.64371	1144.05017	-892.94000	-11.70582	1049.82849	-1010.98212	-324.43634	1003.44702	-707.77307	-357.55145	472.17020	-1021.63971	-305.51190	926.99286	-978.46484				11.51076	485.12439	-1117.54614										
233	2.320	-319.93118	1501.07581	-863.60114	-30.32603	928.58881	-1037.50415																						-421.23737	1143.56152	-894.64886	-11.61437	1049.89563	-1010.22961	-325.53125	1002.53046	-708.78967	-357.58768	472.15750	-1021.53467	-306.31223	927.00317	-979.17072				11.64643	485.47766	-1116.81677										
234	2.330	-320.03928	1501.12134	-863.95764	-29.23067	928.69568	-1036.98389																						-421.80374	1143.80444	-896.94116	-12.76575	1048.19897	-1017.19934	-327.40970	1002.59222	-710.82275	-357.98810	473.11560	-1022.28400	-306.58389	926.68982	-979.74634				11.65278	485.10129	-1116.18726										
235	2.340	-320.10696	1501.09949	-864.27435	-30.23179	928.12042	-1036.55713																						-423.11627	1143.42517	-898.58661	-12.77313	1047.42456	-1016.93665	-329.10236	1002.18207	-712.40302	-358.07779	472.86032	-1022.40411	-307.07959	927.04694	-980.04211				11.87018	485.05350	-1115.62378										
236	2.350	-320.32980	1500.83838	-864.85339	-31.12686	927.46350	-1036.21460																						-423.70731	1142.91479	-900.51361	-12.80118	1047.30383	-1017.09424	-330.97510	1000.39117	-714.94910	-358.56207	473.24255	-1023.18091	-307.53397	926.87885	-980.22491				11.06067	484.79611	-1115.21497										
237	2.360	-320.48074	1500.58264	-865.05475	-31.50490	927.28363	-1035.43738																						-424.78781	1142.95410	-903.21753	-13.39986	1047.51440	-1015.00372	-332.21750	1000.43420	-716.95959	-358.67313	472.80081	-1023.88440	-307.66702	927.01447	-980.38599				11.58088	484.96378	-1114.63293										
238	2.370	-320.59494	1500.33264	-865.12872	-30.59067	927.45966	-1034.95056																						-425.43604	1142.71680	-905.03699	-13.18600	1048.37500	-1007.53821	-333.32260	999.55188	-717.40088	-359.41956	473.03879	-1025.04993	-307.80902	926.94159	-980.67145				11.53190	485.18344	-1112.71362										
239	2.380	-320.59509	1500.38062	-865.43250	-30.59067	927.45966	-1034.95056																						-426.10114	1142.47961	-906.76239	-13.68906	1047.95654	-1006.45892	-336.48563	999.73840	-719.90576	-359.82401	473.32712	-1025.30103	-307.94235	926.43512	-981.92169				11.04801	484.79724	-1111.80237										
240	2.390	-320.69724	1500.34937	-865.99255	-30.59067	927.45966	-1034.95056																						-426.67487	1142.75525	-909.35742	-13.56976	1047.62634	-1005.95105	-338.23981	1000.52417	-721.86157	-359.84546	473.46146	-1025.94275	-308.38391	926.88110	-984.19946				11.38503	484.75760	-1110.75000										
241	2.400	-320.73914	1500.24585	-866.32019	-32.43653	926.52338	-1034.12854																						-427.22510	1142.48584	-911.16058	-13.62402	1047.47644	-1005.88470	-339.33319	998.38654	-723.30084	-360.53369	473.38055	-1026.55908	-308.78961	926.74084	-984.60638				11.84838	484.72009	-1110.39661										
242	2.410	-320.73837	1500.17004	-866.67670	-32.43653	926.52338	-1034.12854																						-428.18393	1142.40735	-912.40002	-13.33669	1047.20117	-1005.94073	-340.64780	997.93719	-724.48724	-361.41101	473.03506	-1027.19678	-309.58228	926.56604	-985.44391				12.33460	485.03418	-1109.72363										
243	2.420	-320.78677	1499.67603	-867.28815	-33.43922	925.94714	-1033.70056																						-428.87250	1142.25256	-914.56366	-13.38225	1046.75049	-1005.80042	-343.80637	998.02161	-726.87079	-361.93384	473.04126	-1028.26086	-308.31241	926.62799	-985.74799				12.55990	485.20255	-1109.43237										
244	2.430	-320.73239	1499.47644	-867.59491	-33.43922	925.94714	-1033.70056																						-429.56650	1141.90906	-917.01825	-13.17855	1046.44312	-1005.80170	-344.80981	998.10162	-727.90973	-362.26840	473.48273	-1028.48962	-308.90350	926.56152	-987.23895				13.04624	485.31970	-1108.95569										
245	2.440	-320.70352	1499.24976	-868.03900	-33.91158	925.30103	-1033.60144																						-429.93509	1142.08069	-918.80365	-13.51303	1045.92615	-1005.51642	-346.62238	997.00165	-730.27179	-363.07068	473.18091	-1029.25171	-309.14130	926.52252	-988.15240				12.87340	485.09970	-1107.22302										
246	2.450	-320.74890	1498.99780	-868.97443	-34.77492	924.48627	-1033.76807																						-431.29788	1142.63635	-920.64893	-12.93200	1045.49402	-1003.57178	-348.72150	996.61786	-732.66077	-363.07068	473.18091	-1029.25171	-309.60153	926.57495	-988.38019				13.30851	484.78564	-1106.49109										
247	2.460	-320.79565	1498.74951	-869.73523	-34.29109	924.41827	-1033.61194																						-431.93546	1142.02063	-922.78674	-12.93881	1045.43494	-1003.54333	-351.43021	996.21802	-734.36060	-363.37787	473.18881	-1030.23145	-309.56573	926.64777	-989.25165				13.76214	484.74487	-1105.40479										
248	2.470	-320.80698	1498.59497	-870.56036	-34.23853	924.24548	-1033.69788																						-433.86957	1142.52246	-924.01007	-13.55663	1044.83472	-1003.70190	-353.44470	995.85620	-736.90973	-363.53284	472.98877	-1031.14539	-310.58008	926.85596	-990.80731				14.21849	484.81216	-1104.94946										
249	2.480	-320.89264	1498.23413	-871.12555	-34.00272	924.10797	-1033.68677																						-435.17389	1141.96765	-926.71155	-13.67433	1044.42236	-1003.52936	-355.40152	995.59198	-738.33881	-363.98364	473.42270	-1031.98193	-310.37686	926.74323	-991.05188				14.58410	484.57306	-1104.76697										
250	2.490	-320.74490	1498.27051	-871.68903	-35.00628	923.53064	-1033.25842																						-435.81909	1141.71167	-930.05853	-13.74527	1043.57617	-1003.41473	-358.69373	995.78693	-740.97858	-364.63837	473.01108	-1033.39404	-311.20795	926.46844	-992.16748				15.16855	484.46408	-1104.37817										
251	2.500	-320.88306	1497.94397	-872.76306	-35.49246	922.77960	-1032.80396																						-437.19870	1141.96069	-932.05743	-14.30400	1043.23218	-1003.08942	-360.72430	995.82556	-741.78430	-365.66849	473.64786	-1033.89771	-311.81363	926.79053	-993.38733				15.33577	484.19629	-1104.08704										
252	2.510	-320.91449	1497.77417	-873.35431	-35.49246	922.77960	-1032.80396																						-437.84628	1141.49963	-934.33612	-14.33239	1043.17432	-1003.06494	-362.24542	994.88214	-745.08301	-366.14728	473.84128	-1035.56213	-312.59879	926.69336	-994.17670				15.12027	483.66974	-1103.47815										
